<svg xmlns="http://www.w3.org/2000/svg"
 xmlns:xlink="http://www.w3.org/1999/xlink"
 width="27px" height="23px"  viewBox="0 0 27 23">
<path fill-rule="evenodd"  fill="#ffffff"
 d="M23.609863,1.0031738 C23.609863,1.0031738 3.393921,1.0031738 3.393921,1.0031738 C2.6221924,1.0031738 1.9922485,1.6447754 1.9922485,2.4245605 C1.9922485,2.4245605 1.9922485,17.17456 1.9922485,17.17456 C1.9922485,17.95459 2.6221924,18.595703 3.393921,18.595703 C3.393921,18.595703 23.609863,18.595703 23.609863,18.595703 C24.380615,18.595703 25.01056,17.95459 25.01056,17.17456 C25.01056,17.17456 25.01056,2.4245605 25.01056,2.4245605 C25.01056,1.6447754 24.380615,1.0031738 23.609863,1.0031738 ZM23.256897,16.129395 C23.256897,16.129395 3.7449646,16.129395 3.7449646,16.129395 C3.7449646,16.129395 3.7449646,2.9973145 3.7449646,2.9973145 C3.7449646,2.9973145 23.256897,2.9973145 23.256897,2.9973145 C23.256897,2.9973145 23.256897,16.129395 23.256897,16.129395 ZM18.778992,21.998535 C18.778992,21.998535 8.262421,21.998535 8.262421,21.998535 C8.262421,21.998535 10.90744,19.271484 10.90744,19.271484 C10.90744,19.271484 16.133026,19.271484 16.133026,19.271484 C16.133026,19.271484 18.778992,21.998535 18.778992,21.998535 ZM12.419067,7.098877 C12.937042,7.098877 13.35672,7.524414 13.35672,8.050049 C13.35672,8.576172 12.937042,9.001953 12.419067,9.001953 C11.901093,9.001953 11.481506,8.576172 11.481506,8.050049 C11.481506,7.524414 11.901093,7.098877 12.419067,7.098877 ZM16.20044,10.170654 C16.718445,10.170654 17.139069,10.596436 17.139069,11.12207 C17.139069,11.648926 16.718445,12.074707 16.20044,12.074707 C15.682465,12.074707 15.261841,11.648926 15.261841,11.12207 C15.261841,10.596436 15.682465,10.170654 16.20044,10.170654 ZM19.939453,6.854248 C20.457458,6.854248 20.877075,7.2800293 20.877075,7.80542 C20.877075,8.331055 20.457458,8.757324 19.939453,8.757324 C19.421448,8.757324 19.001831,8.331055 19.001831,7.80542 C19.001831,7.2800293 19.421448,6.854248 19.939453,6.854248 ZM6.7247925,11.593994 C7.241852,11.593994 7.662506,12.019775 7.662506,12.545166 C7.662506,13.070068 7.241852,13.49585 6.7247925,13.49585 C6.206726,13.49585 5.78714,13.070068 5.78714,12.545166 C5.78714,12.019775 6.206726,11.593994 6.7247925,11.593994 ZM16.148407,10.838867 C15.764404,10.509277 12.458588,7.6569824 12.458588,7.6569824 C12.458588,7.6569824 6.4334717,12.41333 6.4334717,12.41333 C6.4334717,12.41333 6.745117,12.98584 6.745117,12.98584 C6.745117,12.98584 12.029358,8.643555 12.381439,8.446533 C12.6901245,8.714111 16.159973,11.708252 16.159973,11.708252 C16.159973,11.708252 20.155457,8.04834 20.155457,8.04834 C20.155457,8.04834 19.723328,7.5629883 19.723328,7.5629883 C19.723328,7.5629883 16.521667,10.49585 16.148407,10.838867 Z"/>
</svg>