<svg xmlns="http://www.w3.org/2000/svg"
 xmlns:xlink="http://www.w3.org/1999/xlink"
 width="27px" height="24px"  viewBox="0 0 27 24">
<path fill-rule="evenodd"  fill="#ffffff"
 d="M22.665833,8.098877 C22.665833,8.098877 17.50647,8.098877 17.50647,8.098877 C17.281982,8.098877 17.219543,7.956787 17.346497,7.765381 C17.87378,6.9714355 18.173645,5.9055176 18.013916,4.090332 C17.88092,2.5788574 17.558594,2.0002441 17.116455,1.9997559 C16.38556,1.9997559 15.327332,3.5793457 14.253723,5.1428223 C12.857117,7.177246 10.174561,8.812744 9.207153,9.360107 C9.010437,9.471436 8.677124,9.620361 8.465759,9.698975 C8.465759,9.698975 5.7441406,10.710449 5.7441406,10.710449 C5.532959,10.788818 5.3618774,11.040527 5.3618774,11.271973 C5.3618774,11.271973 5.3618774,19.542969 5.3618774,19.542969 C5.3618774,19.774902 5.520447,20.05542 5.7160034,20.168701 C5.7160034,20.168701 6.8881836,20.850098 6.8881836,20.850098 C7.083618,20.964111 7.4241943,21.0542 7.647888,21.071533 C8.88092,21.165527 9.684448,21.6792 10.385986,22.123535 C10.577026,22.245117 10.864929,22.472168 11.052063,22.600098 C11.420288,22.851318 11.859619,23.0 12.3341675,23.0 C12.3341675,23.0 20.509094,23.0 20.509094,23.0 C21.669678,23.0 22.854614,22.129883 23.09259,20.986816 C23.139954,20.760498 23.17035,20.385986 23.212952,20.158203 C23.212952,20.158203 24.938843,10.940674 24.938843,10.940674 C24.98175,10.712891 25.019775,10.338867 24.981445,10.11084 C24.789734,8.968262 23.82611,8.098877 22.665833,8.098877 ZM4.1661377,9.910645 C4.1661377,9.910645 2.6768188,9.910645 2.6768188,9.910645 C2.3030396,9.910645 1.9998779,10.224121 1.9998779,10.610596 C1.9998779,10.610596 1.9998779,20.267334 1.9998779,20.267334 C1.9998779,20.653809 2.3030396,20.967285 2.6768188,20.967285 C2.6768188,20.967285 4.1661377,20.967285 4.1661377,20.967285 C4.539917,20.967285 4.8430786,20.653809 4.8430786,20.267334 C4.8430786,20.267334 4.8430786,10.610596 4.8430786,10.610596 C4.8430786,10.224121 4.539917,9.910645 4.1661377,9.910645 Z"/>
</svg>