<svg xmlns="http://www.w3.org/2000/svg"
 xmlns:xlink="http://www.w3.org/1999/xlink"
 width="22px" height="28px"  viewBox="0 0 22 28">
<path fill-rule="evenodd"  fill="#ffffff"
 d="M17.833252,11.375 C17.833252,14.499756 14.666595,17.575928 14.666595,20.75 C14.666595,20.75 8.333252,20.75 8.333252,20.75 C8.333252,17.673584 5.1666565,14.499756 5.1666565,11.375 C5.1666565,7.92334 8.002426,5.124756 11.499924,5.124756 C14.997482,5.124756 17.833252,7.92334 17.833252,11.375 ZM13.874939,23.874756 C13.874939,23.874756 9.1249695,23.874756 9.1249695,23.874756 C8.687363,23.874756 8.333252,24.224365 8.333252,24.656006 C8.333252,25.088135 8.687363,25.437256 9.1249695,25.437256 C9.1249695,25.437256 9.270294,25.437256 9.270294,25.437256 C9.596619,26.34668 10.467117,26.999512 11.5,26.999512 C12.532867,26.999512 13.403458,26.34668 13.729691,25.437256 C13.729691,25.437256 13.874939,25.437256 13.874939,25.437256 C14.312561,25.437256 14.666595,25.088135 14.666595,24.656006 C14.666595,24.224365 14.312561,23.874756 13.874939,23.874756 ZM13.874939,21.531006 C13.874939,21.531006 9.1249695,21.531006 9.1249695,21.531006 C8.687363,21.531006 8.333252,21.880615 8.333252,22.312256 C8.333252,22.743896 8.687363,23.093506 9.1249695,23.093506 C9.1249695,23.093506 13.874939,23.093506 13.874939,23.093506 C14.312561,23.093506 14.666595,22.743896 14.666595,22.312256 C14.666595,21.880615 14.312561,21.531006 13.874939,21.531006 ZM2.876648,7.364746 C2.876648,7.364746 4.297653,8.17334 4.297653,8.17334 C4.5172424,7.694336 4.7847595,7.2458496 5.0939636,6.822998 C5.0939636,6.822998 3.6683044,6.0097656 3.6683044,6.0097656 C3.6683044,6.0097656 2.876648,7.364746 2.876648,7.364746 ZM12.291641,3.6413574 C12.291641,3.6413574 12.291641,2.0 12.291641,2.0 C12.291641,2.0 10.708267,2.0 10.708267,2.0 C10.708267,2.0 10.708267,3.6413574 10.708267,3.6413574 C10.972702,3.6142578 11.227829,3.5622559 11.499924,3.5622559 C11.772095,3.5622559 12.027206,3.6142578 12.291641,3.6413574 ZM8.255966,4.267334 C8.255966,4.267334 7.4364624,2.8649902 7.4364624,2.8649902 C7.4364624,2.8649902 6.063446,3.645996 6.063446,3.645996 C6.063446,3.645996 6.8875427,5.0532227 6.8875427,5.0532227 C7.315918,4.7478027 7.7704315,4.484131 8.255966,4.267334 ZM20.12326,7.364746 C20.12326,7.364746 19.33162,6.0097656 19.33162,6.0097656 C19.33162,6.0097656 17.905884,6.822998 17.905884,6.822998 C18.215149,7.2458496 18.484238,7.694336 18.703766,8.17334 C18.703766,8.17334 20.12326,7.364746 20.12326,7.364746 ZM16.934967,3.645996 C16.934967,3.645996 15.564957,2.8649902 15.564957,2.8649902 C15.564957,2.8649902 14.745453,4.267334 14.745453,4.267334 C15.229401,4.484131 15.685577,4.748047 16.112305,5.0515137 C16.112305,5.0515137 16.934967,3.645996 16.934967,3.645996 ZM3.5832825,11.375 C3.5832825,11.106201 3.635849,10.854248 3.6637115,10.59375 C3.6637115,10.59375 1.9999847,10.59375 1.9999847,10.59375 C1.9999847,10.59375 1.9999847,12.156006 1.9999847,12.156006 C1.9999847,12.156006 3.6667938,12.156006 3.6667938,12.156006 C3.635849,11.8967285 3.5832825,11.640137 3.5832825,11.375 ZM19.336197,10.59375 C19.36406,10.854248 19.416626,11.106201 19.416626,11.375 C19.416626,11.640137 19.36406,11.8967285 19.333115,12.156006 C19.333115,12.156006 20.999924,12.156006 20.999924,12.156006 C20.999924,12.156006 20.999924,10.59375 20.999924,10.59375 C20.999924,10.59375 19.336197,10.59375 19.336197,10.59375 ZM18.035889,15.999512 C18.035889,15.999512 19.33162,16.738525 19.33162,16.738525 C19.33162,16.738525 20.12326,15.3845215 20.12326,15.3845215 C20.12326,15.3845215 18.685287,14.567139 18.685287,14.567139 C18.485825,15.052002 18.269302,15.528076 18.035889,15.999512 ZM2.876648,15.3845215 C2.876648,15.3845215 3.6683044,16.738525 3.6683044,16.738525 C3.6683044,16.738525 4.953293,16.00708 4.953293,16.00708 C4.721298,15.534424 4.5048523,15.05542 4.308548,14.570068 C4.308548,14.570068 2.876648,15.3845215 2.876648,15.3845215 Z"/>
</svg>