<svg xmlns="http://www.w3.org/2000/svg"
 xmlns:xlink="http://www.w3.org/1999/xlink"
 width="26px" height="28px"  viewBox="0 0 26 28">
<path fill-rule="evenodd"  fill="#ffffff"
 d="M10.06311,7.4057617 C11.190796,7.4057617 12.104919,8.317139 12.104919,9.442627 C12.104919,10.567383 11.190796,11.479248 10.06311,11.479248 C8.935547,11.479248 8.02124,10.567383 8.02124,9.442627 C8.02124,8.317139 8.935547,7.4057617 10.06311,7.4057617 ZM14.501404,15.720947 C15.224304,15.720947 15.809814,16.304932 15.809814,17.0271 C15.809814,17.748047 15.224304,18.333496 14.501404,18.333496 C13.77771,18.333496 13.191895,17.748047 13.191895,17.0271 C13.191895,16.304932 13.77771,15.720947 14.501404,15.720947 ZM21.679504,12.733643 C23.324707,4.699463 16.782166,1.0222168 9.520081,2.1796875 C2.2576294,3.3354492 2.5303955,7.718506 2.1027832,9.809814 C1.2521973,15.050293 6.6607056,20.908203 6.6607056,20.908203 C6.6607056,20.908203 6.352295,26.99878 6.352295,26.99878 C6.352295,26.99878 15.159912,26.99878 15.159912,26.99878 C15.159912,26.99878 15.833557,24.19751 15.833557,24.19751 C15.833557,24.19751 16.216248,24.83789 18.490967,25.030762 C20.76831,25.222656 20.48999,22.450684 20.48999,22.450684 C20.48999,22.450684 22.00531,21.783691 22.00531,21.284424 C22.00531,20.783691 21.10852,20.13794 21.10852,20.13794 C21.10852,20.13794 22.073242,20.311768 22.421082,19.906494 C22.768188,19.501465 21.995178,18.03833 21.995178,18.03833 C21.995178,18.03833 23.184753,18.009277 23.88379,17.239746 C24.584656,16.472656 21.679504,14.19873 21.679504,12.733643 ZM9.101379,13.832275 C9.101379,13.832275 9.051636,13.289307 9.027527,13.018066 C8.808228,12.959717 8.597412,12.882568 8.39502,12.792969 C8.154846,12.995117 7.675537,13.4001465 7.675537,13.4001465 C7.675537,13.4001465 7.593628,13.445068 7.5529785,13.468262 C7.512207,13.48999 6.7493896,13.4001465 6.7493896,13.4001465 C6.7493896,13.4001465 5.437317,11.854736 5.437317,11.854736 C5.437317,11.854736 5.437317,10.9313965 5.437317,10.9313965 C5.437317,10.9313965 5.9420776,10.505615 6.194092,10.291748 C6.1393433,10.085693 6.1063232,9.874268 6.0913696,9.656738 C5.760559,9.505615 5.100403,9.205078 5.100403,9.205078 C5.100403,9.205078 4.835266,8.436279 4.835266,8.436279 C4.835266,8.436279 4.8657837,8.310059 4.8657837,8.310059 C4.8657837,8.310059 5.7125244,6.4692383 5.7125244,6.4692383 C5.7125244,6.4692383 6.6085205,6.234375 6.6085205,6.234375 C6.6085205,6.234375 7.178406,6.4941406 7.4625244,6.623535 C7.6364136,6.4831543 7.8240356,6.356201 8.022156,6.2441406 C7.993225,5.900879 7.937683,5.215332 7.937683,5.215332 C7.937683,5.215332 8.59314,4.562256 8.59314,4.562256 C8.59314,4.562256 10.615601,4.399414 10.615601,4.399414 C10.615601,4.399414 11.270813,5.0532227 11.270813,5.0532227 C11.270813,5.0532227 11.312439,5.5742188 11.3341675,5.8339844 C11.597534,5.9050293 11.848267,5.9990234 12.087585,6.114502 C12.306519,5.9265137 12.745117,5.552002 12.745117,5.552002 C12.745117,5.552002 13.671631,5.552002 13.671631,5.552002 C13.671631,5.552002 14.993591,7.090088 14.993591,7.090088 C14.993591,7.090088 14.993591,8.012939 14.993591,8.012939 C14.993591,8.012939 14.457336,8.470947 14.189209,8.700195 C14.229126,8.886963 14.250305,9.079346 14.259644,9.273193 C14.598145,9.468262 15.274536,9.858398 15.274536,9.858398 C15.274536,9.858398 15.5095215,10.751953 15.5095215,10.751953 C15.5095215,10.751953 14.49469,12.504639 14.49469,12.504639 C14.49469,12.504639 13.598633,12.739502 13.598633,12.739502 C13.598633,12.739502 13.072693,12.436279 12.809204,12.285645 C12.660767,12.400635 12.502075,12.503174 12.336609,12.597412 C12.367981,12.947754 12.431641,13.647461 12.431641,13.647461 C12.431641,13.647461 11.7771,14.300781 11.7771,14.300781 C11.7771,14.300781 9.757324,14.484863 9.757324,14.484863 C9.757324,14.484863 9.101379,13.832275 9.101379,13.832275 ZM17.342102,18.991943 C17.342102,18.991943 16.7677,19.14209 16.7677,19.14209 C16.7677,19.14209 16.430908,18.947754 16.26123,18.85083 C16.166199,18.925781 16.064392,18.990234 15.95752,19.051025 C15.977783,19.276367 16.018494,19.724854 16.018494,19.724854 C16.018494,19.724854 15.599426,20.143066 15.599426,20.143066 C15.599426,20.143066 14.303833,20.261963 14.303833,20.261963 C14.303833,20.261963 13.88385,19.84253 13.88385,19.84253 C13.88385,19.84253 13.8515625,19.494629 13.836304,19.320312 C13.695435,19.282959 13.56134,19.232178 13.431519,19.174805 C13.277466,19.304932 12.969971,19.565186 12.969971,19.565186 C12.969971,19.565186 12.916992,19.59375 12.891968,19.608154 C12.866089,19.623291 12.376038,19.565186 12.376038,19.565186 C12.376038,19.565186 11.534851,18.572021 11.534851,18.572021 C11.534851,18.572021 11.534851,17.980469 11.534851,17.980469 C11.534851,17.980469 11.858032,17.706543 12.019775,17.569824 C11.984924,17.4375 11.964111,17.302002 11.954346,17.161621 C11.741699,17.065918 11.318359,16.872559 11.318359,16.872559 C11.318359,16.872559 11.148376,16.379395 11.148376,16.379395 C11.148376,16.379395 11.167419,16.29834 11.167419,16.29834 C11.167419,16.29834 11.710388,15.11792 11.710388,15.11792 C11.710388,15.11792 12.285706,14.967773 12.285706,14.967773 C12.285706,14.967773 12.650452,15.133301 12.832947,15.217529 C12.944092,15.126465 13.065002,15.045166 13.191895,14.973633 C13.174438,14.753174 13.138855,14.312744 13.138855,14.312744 C13.138855,14.312744 13.557983,13.894531 13.557983,13.894531 C13.557983,13.894531 14.85614,13.790039 14.85614,13.790039 C14.85614,13.790039 15.276123,14.209473 15.276123,14.209473 C15.276123,14.209473 15.302429,14.542725 15.31604,14.709473 C15.485718,14.755615 15.646118,14.81665 15.799683,14.890381 C15.939636,14.769775 16.221313,14.528809 16.221313,14.528809 C16.221313,14.528809 16.816162,14.528809 16.816162,14.528809 C16.816162,14.528809 17.66449,15.516113 17.66449,15.516113 C17.66449,15.516113 17.66449,16.108643 17.66449,16.108643 C17.66449,16.108643 17.32013,16.40332 17.148682,16.550537 C17.174194,16.669922 17.187744,16.79248 17.192871,16.917725 C17.410034,17.042969 17.844482,17.293213 17.844482,17.293213 C17.844482,17.293213 17.994629,17.866943 17.994629,17.866943 C17.994629,17.866943 17.342102,18.991943 17.342102,18.991943 Z"/>
</svg>