<svg xmlns="http://www.w3.org/2000/svg"
 xmlns:xlink="http://www.w3.org/1999/xlink"
 width="20px" height="23px"  viewBox="0 0 20 23">
<path fill-rule="evenodd"  fill="#fc635e"
 d="M14.628479,12.119141 C15.781372,10.758545 16.541565,9.446777 17.038452,8.246094 C17.20752,7.836426 17.437134,7.188965 17.54126,6.798828 C17.594727,6.597412 17.651733,6.3569336 17.70398,6.0861816 C17.716248,6.0285645 17.724548,5.975586 17.735596,5.9177246 C17.748291,5.8449707 17.760986,5.7700195 17.772827,5.6933594 C17.903564,4.8896484 17.923279,4.193115 17.897522,3.6418457 C17.876587,3.2004395 17.841736,2.8259277 17.86676,2.7990723 C17.880554,2.782959 17.894836,2.7661133 17.908264,2.748291 C18.013916,2.6171875 18.058716,2.4816895 18.012817,2.4458008 C18.012817,2.4458008 18.000122,2.4365234 17.984741,2.4245605 C17.969238,2.413086 17.98114,2.298584 18.010376,2.168213 C18.040527,2.0378418 17.949402,1.9685059 17.806152,2.0131836 C17.663574,2.057373 17.532166,2.0822754 17.513184,2.0688477 C17.513184,2.0688477 17.479065,2.0437012 17.479065,2.0437012 C17.43158,2.0090332 17.309631,2.0878906 17.205933,2.2185059 C17.195618,2.2321777 17.186096,2.2456055 17.177002,2.258789 C17.161499,2.2814941 16.786987,2.3222656 16.347595,2.4082031 C15.592102,2.5566406 14.380554,2.9069824 13.062195,3.7336426 C10.92572,5.034912 9.574158,6.856201 8.9522705,7.8393555 C8.714722,8.214355 8.189209,8.481445 7.7419434,8.46582 C4.1483765,8.345215 2.6098633,10.834717 2.0548096,12.12793 C1.8799438,12.535156 2.1499634,12.859375 2.5979004,12.8515625 C10.50708,12.704834 11.227905,17.548584 11.198975,19.49878 C11.1918335,19.940918 11.472961,20.157715 11.856995,19.929688 C14.731384,18.218506 14.541382,14.985352 14.275269,13.501709 C14.196899,13.06665 14.341003,12.458496 14.628479,12.119141 ZM13.73761,9.935059 C13.249023,10.466064 12.425171,10.605713 11.7595825,10.2265625 C10.996277,9.793213 10.729431,8.846191 11.163391,8.111816 C11.21637,8.02002 11.278137,7.9387207 11.346619,7.8640137 C11.833679,7.3327637 12.657532,7.194092 13.325073,7.5722656 C14.086792,8.003906 14.355286,8.951904 13.921326,9.6875 C13.867493,9.778809 13.804199,9.861084 13.73761,9.935059 ZM6.78125,20.61084 C8.199829,19.768799 9.020813,18.215576 9.406677,17.289307 C9.576721,16.880127 9.343506,16.677246 8.965576,16.914795 C7.4780273,17.849121 6.6834717,19.314209 6.315674,20.199219 C6.145813,20.608887 6.397278,20.838623 6.78125,20.61084 ZM3.9577026,20.918213 C6.123657,19.73877 7.288513,17.260498 7.7593994,16.007324 C7.9155884,15.593018 7.6799927,15.393066 7.2957764,15.619873 C5.02124,16.967285 3.9104004,19.290527 3.4664307,20.488525 C3.3128052,20.90332 3.5657349,21.131348 3.9577026,20.918213 ZM3.4489746,18.033691 C4.8675537,17.191895 5.6881714,15.639648 6.0741577,14.713623 C6.244446,14.304932 6.010803,14.102295 5.6331177,14.339111 C4.1464233,15.272705 3.3514404,16.73706 2.9835815,17.622314 C2.8132935,18.03125 3.0651245,18.260986 3.4489746,18.033691 Z"/>
</svg>